General
Complete name                    : Road to Perdition.mkv
Format                           : Matroska
File size                        : 1.87 GiB
Duration                         : 1h 52mn
Overall bit rate                 : 2 391 Kbps


Video
ID                               : 1
Format                           : AVC
Format/Info                      : Advanced Video Codec
Format profile                   : Main@L3.0
Format settings, CABAC           : Yes
Format settings, ReFrames        : 2 frames
Muxing mode                      : Container profile=Unknown@3.0
Codec ID                         : V_MPEG4/ISO/AVC
Duration                         : 1h 52mn
Bit rate                         : 1 889 Kbps
Nominal bit rate                 : 1 918 Kbps
Width                            : 718 pixels
Height                           : 436 pixels
Display aspect ratio             : 2.35
Frame rate                       : 25.000 fps
Resolution                       : 24 bits
Colorimetry                      : 4:2:0
Scan type                        : Progressive
Bits/(Pixel*Frame)               : 0.241
Stream size                      : 1.48 GiB (79%)
Writing library                  : x264 core 79
ip_ratio=1.40 / aq=1:1.00

Audio
ID                               : 2
Format                           : AC-3
Format/Info                      : Audio Coding 3
Codec ID                         : A_AC3
Duration                         : 1h 52mn
Bit rate mode                    : Constant
Bit rate                         : 448 Kbps
Channel(s)                       : 6 channels
Channel positions                : Front: L C R, Surround: L R, LFE
Sampling rate                    : 48.0 KHz
Stream size                      : 359 MiB (19%)
Language                         : English

Text #1
Language                         : English

Text #2
Language                         : English

Text #3
Language                         : Swedish

Text #4
Language                         : Danish

Text #5
Language                         : Icelandic

Text #6
Language                         : Finnish

Text #7
Language                         : Norwegian